<svg width="80" height="80" viewBox="0 0 80 80" fill="none" xmlns="http://www.w3.org/2000/svg">
<g opacity="0.16">
<path opacity="0.32" d="M60.5321 42.4422L67.4528 35.5L69.6577 37.698L73.2685 34.076L45.8212 6.7135L42.2104 10.3355L44.1801 12.2991L37.2594 19.2413C32.8943 23.6199 33.8324 29.6948 35.768 35.9664C29.5694 34.1272 23.2758 33.2682 18.8228 37.735L12.3123 44.2656L10.3426 42.3019L6.73181 45.9239L34.1791 73.2865L37.7899 69.6645L35.585 67.4664L42.0955 60.9358C46.5484 56.4691 45.67 50.1781 43.8116 43.9851C50.0893 45.9014 56.167 46.8208 60.5321 42.4422ZM38.4735 57.325L31.963 63.8556L25.882 57.7933L28.951 54.7054C30.7113 52.9341 31.7669 50.5826 31.9204 48.09C29.4287 48.2588 27.0837 49.3288 25.3234 51.1002L22.26 54.1825L15.9343 47.8764L22.4448 41.3458C25.6369 38.1438 31.4689 39.8462 37.7867 41.9853C39.9452 48.2964 41.6656 54.123 38.4735 57.325ZM41.8073 37.9522C39.6571 31.6933 37.8556 25.8873 40.8814 22.8521L47.8021 15.9099L54.1232 22.2115L51.0421 25.302C49.279 27.0706 48.2199 29.4205 48.0625 31.9128C50.5544 31.7478 52.901 30.6814 54.6641 28.9128L57.7451 25.8223L63.8308 31.8892L56.9101 38.8314C53.8843 41.8665 48.0727 40.0829 41.8073 37.9522Z" fill="white"/>
<path d="M53.3248 25.6719L51.2841 27.7189L52.7005 29.131L54.7412 27.084L53.3248 25.6719Z" fill="white"/>
<path d="M52.6577 50.8927L51.2438 52.3069L53.3364 54.3991L54.7503 52.9849L52.6577 50.8927Z" fill="white"/>
<path d="M43.3589 56.5799L41.3589 56.583L41.3632 59.3561L43.3632 59.353L43.3589 56.5799Z" fill="white"/>
<path d="M43.3036 20.8159L41.3036 20.8195L41.3081 23.3978L43.3081 23.3943L43.3036 20.8159Z" fill="white"/>
<path d="M40.0921 16.9999C40.0874 16.9999 40.0827 17.0001 40.078 17.0001C38.8651 16.9601 37.6619 17.0304 36.4947 17.3901C33.4917 18.3157 31.6582 20.3949 30.7213 23.3273C30.3607 24.456 30.2687 25.6226 30.3853 26.805C30.4281 27.237 30.5981 27.6197 30.7925 27.9969C30.9863 28.3731 31.1764 28.7495 31.2543 29.1728C31.3714 29.808 31.275 30.4014 30.9273 30.9481C30.7855 31.1711 30.6338 31.388 30.4841 31.6059C29.7353 32.6949 29.8925 33.8971 30.8915 34.7698C31.2389 35.0734 31.6275 35.244 32.0954 35.2227C32.3242 35.2123 32.5537 35.2151 32.7826 35.2179C33.4017 35.2252 33.857 35.5102 34.1678 36.0399C34.4714 36.5575 34.6361 37.1254 34.7364 37.7087C34.8474 38.3535 35.1948 38.7809 35.7729 39.0797C36.5363 39.4744 37.33 39.703 38.1441 39.8316C37.5761 39.8919 37.0132 39.9964 36.4586 40.1674C33.4253 41.1023 31.5733 43.2023 30.6271 46.1642C30.2628 47.3043 30.1699 48.4826 30.2877 49.6769C30.3309 50.1133 30.5026 50.4998 30.699 50.8808C30.8947 51.2608 31.0867 51.6409 31.1655 52.0686C31.2837 52.7102 31.1863 53.3096 30.8352 53.8617C30.6919 54.0869 30.5387 54.306 30.3875 54.5261C29.6311 55.626 29.7899 56.8403 30.7989 57.7218C31.1499 58.0285 31.5424 58.2008 32.015 58.1793C32.2461 58.1688 32.4779 58.1716 32.7091 58.1744C33.3344 58.1818 33.7943 58.4697 34.1083 59.0047C34.4148 59.5275 34.5812 60.1011 34.6825 60.6902C34.7946 61.3416 35.1456 61.7733 35.7295 62.0751C37.1046 62.786 38.5747 62.9761 40.0916 62.9784L40.0921 62.9824C52.7856 62.9773 63.0741 52.6858 63.0741 39.9912C63.0741 27.2965 52.7856 17.005 40.0921 16.9999ZM35.5489 31.367C35.3464 31.3781 35.0831 31.3521 34.8226 31.3083C33.8895 31.1512 33.1989 30.6878 32.9194 29.7423C32.6677 28.8903 32.7359 28.0519 33.0849 27.2368C33.3277 26.6695 33.7544 26.3075 34.3568 26.1906C35.5305 25.9624 36.6741 26.1344 37.7718 26.5652C38.842 26.9851 39.2535 27.8291 38.9678 28.9442C38.6701 30.1069 38.0353 30.9697 36.7917 31.2392C36.4044 31.3232 36.0092 31.3624 35.5489 31.367ZM35.5032 54.2847C35.2987 54.296 35.0327 54.2698 34.7696 54.2255C33.8271 54.0669 33.1295 53.5988 32.8472 52.6438C32.593 51.7832 32.6619 50.9364 33.0144 50.113C33.2597 49.5401 33.6907 49.1744 34.2991 49.0564C35.4846 48.8258 36.6397 48.9996 37.7484 49.4347C38.8294 49.8588 39.245 50.7113 38.9565 51.8377C38.6558 53.0121 38.0146 53.8835 36.7585 54.1557C36.3673 54.2406 35.9682 54.2802 35.5032 54.2847ZM40.0921 61.0534V59.3864C40.05 59.3837 40.0077 59.4042 39.9542 59.4521C39.6846 59.694 39.3697 59.8562 39.0092 59.9165C38.5998 59.9852 38.3126 59.7955 38.2155 59.3917C38.1847 59.2628 38.173 59.1294 38.1525 58.9981C38.1529 58.8518 38.1722 58.7069 38.2185 58.5745C38.5317 57.68 38.9851 56.8563 39.5124 56.0724C39.6157 55.9185 39.7687 55.8901 39.9358 55.9754C39.9821 55.9991 40.0253 56.0234 40.0728 56.0292C40.0609 56.0267 40.0488 56.0248 40.0373 56.0209C40.0545 56.0267 40.0714 56.0338 40.09 56.0338C40.0905 56.0338 40.0913 56.0338 40.092 56.0338C40.092 56.0338 40.092 56.0338 40.092 56.0338L40.0921 39.9741V39.7734V36.4179C40.0504 36.4151 40.0085 36.4354 39.9555 36.4828C39.6886 36.7223 39.3769 36.8829 39.02 36.9426C38.6147 37.0106 38.3303 36.8228 38.2342 36.423C38.2037 36.2955 38.1921 36.1633 38.1718 36.0334C38.1722 35.8886 38.1913 35.7451 38.2372 35.614C38.5473 34.7284 38.9962 33.9129 39.5181 33.1368C39.6205 32.9845 39.7718 32.9563 39.9373 33.0408C39.9895 33.0675 40.0369 33.0994 40.0921 33.0986V18.9232C51.7047 18.9283 61.1508 28.3774 61.1508 39.9912C61.1508 51.5307 51.6055 60.9287 40.0921 61.0534Z" fill="white"/>
<path d="M40.0899 33.0987H40.092C40.0729 33.099 40.0554 33.0919 40.0377 33.0859C40.0548 33.0917 40.0715 33.0987 40.0899 33.0987Z" fill="white"/>
<path d="M34.026 29.4152C34.0552 29.5144 34.0928 29.6058 34.1432 29.6896C34.1 29.5969 34.06 29.5011 34.0233 29.4025C34.0246 29.4067 34.0246 29.4109 34.026 29.4152Z" fill="white"/>
<path d="M33.9649 52.3135C33.9945 52.4137 34.0325 52.506 34.0833 52.5906C34.0397 52.497 33.9993 52.4002 33.9623 52.3007C33.9636 52.3049 33.9636 52.3092 33.9649 52.3135Z" fill="white"/>
<path d="M33.5335 60.8878C33.4475 60.3868 33.3207 59.9993 33.1421 59.6713C33.0264 59.6036 32.9154 59.5272 32.8128 59.4353C32.7623 59.3899 32.7217 59.371 32.6817 59.3712V59.3697C32.6806 59.3696 32.6795 59.3706 32.6784 59.3704C32.6772 59.3706 32.6761 59.3696 32.675 59.3697V59.3712C32.6583 59.3711 32.6414 59.3766 32.6239 59.3836C31.5294 59.3898 30.7549 59.0763 30.7549 59.0763L30.7532 59.0775C30.5017 58.9575 30.2607 58.7996 30.032 58.5998C28.6562 57.398 28.3632 55.6864 29.241 54.1608C28.8831 54.2306 28.5149 54.2659 28.0916 54.27C27.8868 54.2814 27.6209 54.255 27.3576 54.2107C26.4149 54.052 25.7171 53.5839 25.4348 52.6286C25.1803 51.7676 25.2493 50.9207 25.602 50.097C25.8475 49.5239 26.2784 49.1582 26.8871 49.0398C27.6322 48.8951 28.3652 48.9102 29.0823 49.0492C29.0474 47.9166 29.1907 46.8292 29.5164 45.8096C30.3884 43.0807 31.9508 41.1007 34.1607 39.8852C34.3637 39.8636 34.5658 39.8384 34.7664 39.8052C34.1312 39.3384 33.7364 38.7032 33.5989 37.9043C33.5136 37.4082 33.3881 37.0246 33.2112 36.6999C33.0968 36.6328 32.9867 36.5572 32.8853 36.4662C32.8511 36.4356 32.8221 36.4207 32.7942 36.4121C32.7816 36.408 32.7687 36.4027 32.7565 36.4027C32.7561 36.4027 32.7559 36.4027 32.7555 36.4027V36.4013C32.7551 36.4013 32.7546 36.4015 32.7543 36.4016C32.7536 36.4018 32.7529 36.402 32.7522 36.402C32.7515 36.4021 32.7508 36.4018 32.7501 36.4016C32.7497 36.4015 32.7494 36.4013 32.749 36.4013L32.7488 36.4027C32.7315 36.4027 32.7138 36.408 32.6958 36.4156C31.6221 36.4143 30.8646 36.1092 30.8646 36.1092L30.8492 36.1196C30.8488 36.1174 30.8484 36.1153 30.848 36.113C30.5984 35.9941 30.3591 35.8373 30.1321 35.639C28.77 34.4492 28.48 32.7546 29.349 31.2442C28.9946 31.3134 28.6303 31.3483 28.211 31.3523C28.0084 31.3636 27.745 31.3375 27.4844 31.2936C26.5511 31.1366 25.8603 30.6731 25.5808 29.7273C25.3287 28.8749 25.3971 28.0363 25.7462 27.2209C25.9893 26.6535 26.4158 26.2914 27.0185 26.1743C27.7561 26.031 28.4821 26.046 29.192 26.1836C29.1573 25.0622 29.2993 23.9856 29.6218 22.9761C30.5083 20.2016 32.11 18.2026 34.3926 17.009C33.853 16.9659 33.3091 16.9594 32.7629 16.9774C32.7604 16.9774 32.758 16.9774 32.7555 16.9774C32.7544 16.9774 32.7533 16.9774 32.7522 16.9774C32.7511 16.9774 32.7499 16.9774 32.7488 16.9774C32.7463 16.9774 32.7439 16.9774 32.7417 16.9774C31.5281 16.9374 30.3248 17.0078 29.1571 17.3675C26.1531 18.2935 24.319 20.3732 23.3818 23.3065C23.0211 24.4356 22.9289 25.6026 23.0458 26.7853C23.0886 27.2175 23.2586 27.6004 23.4531 27.9776C23.647 28.354 23.837 28.7304 23.915 29.1539C24.032 29.7895 23.9358 30.383 23.588 30.9298C23.446 31.1528 23.2944 31.3698 23.1447 31.5877C22.3955 32.6771 22.5529 33.8796 23.5521 34.7527C23.8996 35.0565 24.2884 35.2271 24.7564 35.2058C24.9852 35.1954 25.2147 35.1982 25.4439 35.2009C26.0631 35.2082 26.5186 35.4934 26.8294 36.0233C27.1329 36.5411 27.2978 37.109 27.3983 37.6925C27.5093 38.3375 27.8568 38.7651 28.4351 39.064C29.1806 39.4494 29.955 39.6765 30.7489 39.8069C30.1754 39.867 29.6072 39.972 29.0472 40.1445C26.0129 41.0798 24.1605 43.1805 23.2137 46.1432C22.8495 47.2837 22.7563 48.4625 22.8743 49.657C22.9177 50.0936 23.0893 50.4803 23.2858 50.8613C23.4817 51.2415 23.6736 51.6217 23.7523 52.0494C23.8705 52.6914 23.7734 53.2909 23.422 53.8432C23.2786 54.0685 23.1256 54.2876 22.9744 54.5077C22.2176 55.6081 22.3765 56.8227 23.3859 57.7046C23.7367 58.0114 24.1295 58.1837 24.6022 58.1622C24.8332 58.1517 25.065 58.1544 25.2966 58.1573C25.9221 58.1646 26.382 58.4527 26.6961 58.9879C27.0026 59.5109 27.1692 60.0846 27.2706 60.6739C27.3827 61.3254 27.7338 61.7572 28.3179 62.0592C29.6916 62.7694 31.1598 62.9598 32.675 62.9627C32.6761 62.9627 32.6772 62.9629 32.6784 62.9629C32.6795 62.9629 32.6806 62.9629 32.6817 62.9629C33.3703 62.9616 34.0483 62.9178 34.7128 62.8079C34.0712 62.3364 33.6725 61.6948 33.5335 60.8878Z" fill="white"/>
<path d="M26.9845 39.7509C26.8173 39.4824 26.6884 39.178 26.5891 38.8474C26.4315 38.5592 26.3218 38.2395 26.2613 37.8884C26.1695 37.3544 26.0337 36.9472 25.8344 36.6072C25.7091 36.3938 25.6086 36.3569 25.4285 36.3547C25.3294 36.3536 25.2302 36.3523 25.131 36.3523C25.0238 36.3523 24.9163 36.3537 24.8091 36.3586C24.7653 36.3606 24.722 36.3616 24.6791 36.3616C23.9891 36.3616 23.3544 36.1126 22.793 35.6217C21.3425 34.3542 21.1073 32.5141 22.1939 30.9342L22.2643 30.8319C22.3832 30.6594 22.5023 30.4868 22.6146 30.3104C22.7972 30.0236 22.8482 29.7313 22.7803 29.3628C22.7312 29.0957 22.5768 28.7959 22.4279 28.5066C22.2074 28.0795 22.001 27.6034 21.9208 27.0364C21.884 27.0471 21.8472 27.0556 21.8105 27.0669C18.8056 27.993 16.9709 30.0735 16.0335 33.0077C15.6725 34.1371 15.5805 35.3046 15.6973 36.4877C15.7399 36.92 15.9101 37.3029 16.1047 37.6803C16.2987 38.0568 16.489 38.4334 16.5667 38.857C16.6837 39.4927 16.5876 40.0865 16.2398 40.6334C16.0978 40.8566 15.946 41.0736 15.7961 41.2915C15.0469 42.3813 15.2041 43.5842 16.2037 44.4575C16.5513 44.7614 16.9403 44.932 17.4086 44.9108C17.6373 44.9004 17.8669 44.9031 18.0962 44.9058C18.7156 44.9132 19.1711 45.1985 19.4821 45.7285C19.7858 46.2464 19.9507 46.8146 20.0512 47.3982C20.1622 48.0435 20.5099 48.4712 21.0882 48.7702C21.2839 48.8713 21.482 48.9591 21.6813 49.0399C21.6451 47.9046 21.7882 46.8146 22.1148 45.792C23.016 42.9721 24.6547 40.9524 26.9845 39.7509ZM24.2853 38.6474C23.9872 39.8108 23.3522 40.6741 22.1078 40.9437C21.7202 41.0278 21.3248 41.0671 20.8641 41.0715C20.6614 41.0828 20.3981 41.0567 20.1372 41.0128C19.2038 40.8557 18.5126 40.392 18.2329 39.4459C17.981 38.5933 18.0494 37.7544 18.3986 36.9388C18.6416 36.3712 19.0685 36.0089 19.6712 35.8918C20.8457 35.6636 21.9901 35.8358 23.0885 36.2668C24.1592 36.6869 24.5709 37.5314 24.2853 38.6474Z" fill="white"/>
<path d="M18.0573 19.2267V18.5523V18.024V16.9674H17.0006V18.024V18.5523V19.2267V20.1373L18.0573 21.1939V19.2267Z" fill="white"/>
<path d="M43.5696 38.6462V39.8601V41.6674V43.502L45.9975 45.9298V41.6674V39.8601V38.6462V36.2183H43.5696V38.6462Z" fill="white"/>
<path d="M47.3273 38.6462V39.8601V41.8139V43.502L49.7552 45.9298V41.8139V39.8601V38.6462V36.2183H47.3273V38.6462Z" fill="white"/>
<path d="M53.513 41.3744V39.8601V38.6462V36.2183H51.0851V38.6462V39.8601V41.3744V43.502L53.513 45.9298V41.3744Z" fill="white"/>
<path d="M59.2356 38.9979L56.6571 39.0018L56.6601 41.0018L59.2386 40.9979L59.2356 38.9979Z" fill="white"/>
</g>
</svg>
