<svg width="24" height="24" viewBox="0 0 24 24" fill="none" xmlns="http://www.w3.org/2000/svg">
<path d="M19.0698 5.5C18.8165 5.5 18.6112 5.70532 18.6112 5.95862V6.42889H17.8255V5.95862C17.8255 5.70532 17.6201 5.5 17.3668 5.5H6.63324C6.37994 5.5 6.17462 5.70532 6.17462 5.95862V6.42889H5.38892V5.95862C5.38892 5.70532 5.18361 5.5 4.9303 5.5C4.677 5.5 4.47168 5.70532 4.47168 5.95862V7.8164C4.47168 8.0697 4.677 8.27502 4.9303 8.27502C5.18361 8.27502 5.38892 8.0697 5.38892 7.8164V7.34613H6.17462V17.1405C6.17462 17.313 6.27136 17.4707 6.42498 17.5491L11.7918 20.284C11.8572 20.3174 11.9286 20.3341 12 20.3341C12.0714 20.3341 12.1428 20.3174 12.2082 20.284L17.575 17.5491C17.7287 17.4707 17.8255 17.313 17.8255 17.1405V7.34613H18.6112V7.8164C18.6112 8.0697 18.8165 8.27502 19.0698 8.27502C19.323 8.27502 19.5284 8.0697 19.5284 7.8164V5.95862C19.5284 5.70532 19.323 5.5 19.0698 5.5ZM12 19.3606L7.09186 16.8595V8.16024H16.9082V16.8595L12 19.3606Z" fill="white"/>
<path d="M13.8012 12.4901C13.4228 12.433 13.0444 12.375 12.666 12.3177C12.6458 12.3146 12.6328 12.3069 12.624 12.287C12.5973 12.2265 12.5683 12.1671 12.5402 12.1073C12.3988 11.806 12.2571 11.5048 12.1162 11.2032C12.0975 11.1631 12.071 11.1351 12.0263 11.1272C12.0158 11.1253 12.0059 11.1244 11.9964 11.1244C11.9465 11.1244 11.9094 11.1502 11.8845 11.2031C11.7159 11.5619 11.5473 11.9208 11.3793 12.2799C11.3697 12.3004 11.3597 12.3142 11.3346 12.318C10.9574 12.3748 10.5804 12.4331 10.2031 12.4897C10.1489 12.4979 10.1084 12.5196 10.0899 12.573C10.0718 12.6254 10.0907 12.6674 10.1278 12.7049C10.1946 12.7723 10.2604 12.8407 10.3266 12.9086C10.5349 13.1221 10.7432 13.3356 10.9515 13.5491C10.9636 13.5615 10.9746 13.5715 10.971 13.5935C10.9197 13.901 10.8698 14.2086 10.8196 14.5162C10.8027 14.6196 10.7861 14.723 10.7694 14.8263C10.7694 14.8482 10.7733 14.8686 10.7837 14.8879C10.8057 14.9287 10.8421 14.9503 10.8845 14.9503C10.9086 14.9503 10.9347 14.9433 10.9612 14.9287C11.2932 14.7456 11.6252 14.5626 11.9563 14.378C11.9725 14.369 11.9865 14.3643 12.0006 14.3643C12.0142 14.3643 12.028 14.3687 12.0439 14.3776C12.3749 14.5623 12.7071 14.745 13.0385 14.929C13.0638 14.9431 13.0888 14.9513 13.1134 14.9513C13.1365 14.9513 13.1594 14.944 13.1822 14.9275C13.2284 14.8939 13.2349 14.8466 13.2262 14.7936C13.1616 14.3999 13.0981 14.0061 13.0325 13.6126C13.0273 13.5814 13.0348 13.5627 13.056 13.5411C13.3286 13.2631 13.6001 12.984 13.8723 12.7054C13.909 12.6678 13.9281 12.6259 13.9104 12.5734C13.8928 12.5215 13.854 12.498 13.8012 12.4901Z" fill="white"/>
<path d="M15.6123 8.85418H8.35333C8.10003 8.85418 7.89471 9.0595 7.89471 9.31281V16.1056C7.89471 16.2786 7.99215 16.4371 8.14661 16.515L11.7933 18.3565C11.8583 18.3894 11.9291 18.4058 12 18.4058C12.0714 18.4058 12.143 18.3891 12.2084 18.3557L15.8207 16.5142C15.9742 16.4359 16.0709 16.278 16.0709 16.1056V9.31281C16.0709 9.0595 15.8656 8.85418 15.6123 8.85418ZM14.5283 13.3465L14.2392 13.6426C14.1617 13.7221 14.0841 13.8017 14.0065 13.8811C14.0268 14.0053 14.0471 14.1296 14.0674 14.2538L14.1313 14.6452C14.198 15.0516 14.0447 15.4346 13.7213 15.6696C13.5421 15.7997 13.3319 15.8685 13.1134 15.8685C12.9327 15.8685 12.7578 15.8223 12.5933 15.731C12.4657 15.6601 12.338 15.5895 12.2103 15.5188C12.1403 15.4801 12.0703 15.4414 12.0004 15.4027C11.8183 15.5035 11.6361 15.604 11.4539 15.7045L11.4041 15.7319C11.2432 15.8207 11.0635 15.8676 10.8845 15.8676C10.5052 15.8676 10.1572 15.6589 9.97618 15.3229C9.89381 15.17 9.85208 15.0028 9.85215 14.826C9.85217 14.777 9.8561 14.7282 9.86393 14.6798L9.9143 14.3686L9.93678 14.2307C9.95577 14.1142 9.97477 13.9976 9.99386 13.881L9.66999 13.5491L9.60464 13.4819C9.562 13.4379 9.51938 13.394 9.4763 13.3505C9.19037 13.062 9.09325 12.6494 9.22285 12.2738C9.35147 11.901 9.66705 11.6426 10.067 11.5826C10.2689 11.5523 10.4708 11.5216 10.6726 11.4908C10.6954 11.4873 10.7182 11.4838 10.741 11.4803C10.8453 11.2578 10.9498 11.0353 11.0544 10.8129C11.23 10.4393 11.5909 10.2072 11.9963 10.2071H11.9964C12.0598 10.2071 12.1241 10.2129 12.1875 10.2242C12.5229 10.2841 12.7998 10.4995 12.9472 10.815C13.0508 11.0368 13.1549 11.2584 13.259 11.48L13.2798 11.4832C13.4992 11.5166 13.7186 11.55 13.9381 11.5831C14.3377 11.6434 14.6521 11.9037 14.7793 12.2795C14.9067 12.6563 14.8129 13.0552 14.5283 13.3465Z" fill="white"/>
</svg>
