<svg width="16" height="16" viewBox="0 0 16 16" fill="none" xmlns="http://www.w3.org/2000/svg">
<path d="M6.99998 11.1667L11.8166 6.35004L10.8666 5.40004L6.99998 9.26671L5.08331 7.35004L4.14998 8.30004L6.99998 11.1667ZM7.99998 14.9C7.05553 14.9 6.16386 14.7195 5.32498 14.3584C4.48609 13.9973 3.75275 13.5028 3.12498 12.875C2.4972 12.2473 2.00275 11.5167 1.64164 10.6834C1.28053 9.85004 1.09998 8.9556 1.09998 8.00004C1.09998 7.04449 1.28053 6.14726 1.64164 5.30837C2.00275 4.46949 2.49442 3.73893 3.11664 3.11671C3.73886 2.49449 4.46942 2.00004 5.30831 1.63337C6.1472 1.26671 7.04442 1.08337 7.99998 1.08337C8.95553 1.08337 9.85553 1.26671 10.7 1.63337C11.5444 2.00004 12.275 2.49171 12.8916 3.10837C13.5083 3.72504 14 4.45282 14.3666 5.29171C14.7333 6.1306 14.9166 7.03337 14.9166 8.00004C14.9166 8.9556 14.7333 9.85282 14.3666 10.6917C14 11.5306 13.5055 12.2612 12.8833 12.8834C12.2611 13.5056 11.5333 13.9973 10.7 14.3584C9.86664 14.7195 8.96664 14.9 7.99998 14.9Z" fill="#00E0B3"/>
</svg>
