<svg width="80" height="80" viewBox="0 0 80 80" fill="none" xmlns="http://www.w3.org/2000/svg">
<g opacity="0.16">
<path opacity="0.32" d="M60.5321 42.4422L67.4528 35.5L69.6577 37.698L73.2685 34.076L45.8212 6.7135L42.2104 10.3355L44.1801 12.2991L37.2594 19.2413C32.8943 23.6199 33.8324 29.6948 35.768 35.9664C29.5694 34.1272 23.2758 33.2682 18.8228 37.735L12.3123 44.2656L10.3426 42.3019L6.73181 45.9239L34.1791 73.2865L37.7899 69.6645L35.585 67.4664L42.0955 60.9358C46.5484 56.4691 45.67 50.1781 43.8116 43.9851C50.0893 45.9014 56.167 46.8208 60.5321 42.4422ZM38.4735 57.325L31.963 63.8556L25.882 57.7933L28.951 54.7054C30.7113 52.9341 31.7669 50.5826 31.9204 48.09C29.4287 48.2588 27.0837 49.3288 25.3234 51.1002L22.26 54.1825L15.9343 47.8764L22.4448 41.3458C25.6369 38.1438 31.4689 39.8462 37.7867 41.9853C39.9452 48.2964 41.6656 54.123 38.4735 57.325ZM41.8073 37.9522C39.6571 31.6933 37.8556 25.8873 40.8814 22.8521L47.8021 15.9099L54.1232 22.2115L51.0421 25.302C49.279 27.0706 48.2199 29.4205 48.0625 31.9128C50.5544 31.7478 52.901 30.6814 54.6641 28.9128L57.7451 25.8223L63.8308 31.8892L56.9101 38.8314C53.8843 41.8665 48.0727 40.0829 41.8073 37.9522Z" fill="white"/>
<path d="M47.8162 36.7133L47.8233 41.3055L44.1439 37.6374L44.1425 36.719L42.3055 36.7218L42.3084 38.5587L47.8275 44.0608L49.6645 44.0579L49.6531 36.7104L47.8162 36.7133Z" fill="white"/>
<path d="M52.5036 42.1576L52.4994 39.4614L52.498 38.5429L52.4951 36.7061L50.6583 36.7089L50.6612 38.5458L50.6626 39.4642L50.6667 42.1605L50.6668 42.2195L52.5065 44.0536L52.5036 42.1576Z" fill="white"/>
<path d="M55.3425 39.457L55.3411 38.5385L55.3382 36.7017L53.5013 36.7045L53.5042 38.5414L53.5056 39.4598L53.5098 42.1561L53.5098 42.2151L55.3496 44.0492L55.3467 42.1532L55.3425 39.457Z" fill="white"/>
<path d="M58.1902 42.1489L58.186 39.4526L58.1846 38.5341L58.1818 36.6973L56.3448 36.7001L56.3477 38.537L56.3491 39.4554L56.3533 42.1517L56.3534 42.2107L58.1931 44.0448L58.1902 42.1489Z" fill="white"/>
<path d="M53.3241 25.6719L51.2833 27.7189L52.6997 29.131L54.7405 27.084L53.3241 25.6719Z" fill="white"/>
<path d="M52.6575 50.8929L51.2435 52.3071L53.3361 54.3993L54.75 52.9851L52.6575 50.8929Z" fill="white"/>
<path d="M43.3586 56.5802L41.3586 56.5833L41.3629 59.3563L43.3629 59.3532L43.3586 56.5802Z" fill="white"/>
<path d="M43.3029 20.8159L41.3029 20.8195L41.3074 23.3978L43.3074 23.3943L43.3029 20.8159Z" fill="white"/>
<path d="M31.7195 38.523L29.8571 36.6606H27.9948V38.523L33.5819 44.1102H35.4443V42.2478L33.5819 40.3854L35.4443 38.523V36.6606H33.5819L31.7195 38.523Z" fill="white"/>
<path d="M27.9948 42.248V44.1104H29.8571L31.2502 42.7174L29.3878 40.855L27.9948 42.248Z" fill="white"/>
<path d="M40.0917 17V17.3323L40.0916 16.9936C40.0821 16.9936 40.0727 16.9937 40.0633 16.9937C39.6174 16.979 39.1726 16.975 38.7284 16.9774L38.7138 16.9736V16.9775C36.7425 16.989 34.7904 17.1879 32.8864 17.7748C26.8712 19.6287 23.1989 23.7931 21.3224 29.6664C20.6002 31.9271 20.4157 34.2639 20.6496 36.6321C20.7351 37.4975 21.0757 38.2641 21.4651 39.0195C21.8534 39.773 22.2341 40.5267 22.3902 41.3747C22.6244 42.6471 22.4317 43.8356 21.7352 44.9305C21.451 45.3771 21.1474 45.8116 20.8474 46.2478C19.3476 48.4291 19.6625 50.8371 21.6633 52.5851C22.3592 53.1932 23.1377 53.5348 24.0748 53.4923C24.5329 53.4714 24.9926 53.477 25.4514 53.4824C26.6913 53.4971 27.6031 54.068 28.2255 55.1292C28.8335 56.1657 29.1634 57.3031 29.3646 58.4714C29.5869 59.763 30.2827 60.6191 31.4405 61.2176C34.1676 62.6274 37.0832 63.0044 40.0916 63.0089V61.9833L40.0917 62.9825C52.7852 62.9774 63.0737 52.6859 63.0737 39.9913C63.0737 27.2966 52.7852 17.0051 40.0917 17ZM33.4812 45.5136C32.7053 45.6817 31.914 45.7605 30.9919 45.7694C30.5862 45.7918 30.0588 45.7396 29.5369 45.6518C27.6681 45.3374 26.2849 44.4092 25.7253 42.5154C25.221 40.8088 25.3576 39.1296 26.0567 37.497C26.5431 36.3609 27.3975 35.6357 28.6041 35.4014C30.9551 34.9445 33.2456 35.2891 35.4442 36.1519C37.5874 36.9928 38.4117 38.6832 37.8397 40.9169C37.2433 43.2458 35.9718 44.9738 33.4812 45.5136ZM40.0917 61.0592V61.6494L40.0916 55.886C40.0079 55.8805 39.9241 55.9212 39.8182 56.0161C39.2837 56.4958 38.6588 56.8176 37.9444 56.9371C37.1323 57.0732 36.5628 56.697 36.3704 55.8963C36.3092 55.641 36.2859 55.3763 36.2453 55.116C36.2462 54.8258 36.2845 54.5385 36.3765 54.276C36.9975 52.5022 37.8964 50.8688 38.9418 49.3143C39.1468 49.0092 39.4501 48.9527 39.7815 49.1221C39.8861 49.1755 39.981 49.2394 40.0916 49.2378V18.9238H40.1087C51.7134 18.9381 61.1504 28.3832 61.1504 39.9913C61.1504 51.605 51.7043 61.0541 40.0917 61.0592Z" fill="white"/>
</g>
</svg>
