<svg width="80" height="80" viewBox="0 0 80 80" fill="none" xmlns="http://www.w3.org/2000/svg">
<g opacity="0.16">
<path opacity="0.32" d="M63.955 11.5L68.3738 11.6265L68.5002 16.0451L35.708 48.8378L35.6979 48.8478L35.6879 48.8579L31.6068 52.9878L28.2684 56.3659L31.6109 59.7398L32.3844 60.5206C31.9326 60.6425 31.4617 60.7054 30.9813 60.7054C29.8685 60.7054 28.8001 60.3624 27.8914 59.7135L24.5827 57.3506L21.7077 60.2256L13.4263 68.5072L11.6299 68.4664L11.5281 66.5391L19.7747 58.2923L22.6499 55.417L20.2864 52.1082C19.6378 51.2002 19.295 50.1319 19.295 49.0188C19.295 48.5347 19.3589 48.0604 19.4823 47.6058L20.2717 48.3952L23.6651 51.7887L27.0592 48.3959L27.1102 48.3449L29.9802 45.475L32.4083 43.0469L33.3619 42.0933L63.955 11.5ZM62.832 6.66663C62.2979 6.66663 61.7845 6.88225 61.4051 7.26161L29.9678 38.6992L29.0142 39.6527L26.5861 42.0809L23.7161 44.9508L23.6658 45.0011L20.4215 41.7569C20.0254 41.3607 19.5061 41.1626 18.9867 41.1626C18.4674 41.1626 17.948 41.3607 17.552 41.7569L17.469 41.8395C15.5513 43.7572 14.495 46.3069 14.495 49.0188C14.495 51.1585 15.1614 53.1915 16.3806 54.8982L7.26129 64.0177C6.85447 64.4245 6.63959 64.985 6.66965 65.5595L6.97203 71.285C7.02783 72.3451 7.89087 73.183 8.95225 73.2068L14.5018 73.3329C14.5172 73.3331 14.5324 73.3332 14.5478 73.3332C15.0854 73.3332 15.6017 73.1203 15.9826 72.7392L25.1019 63.6197C26.8088 64.8386 28.842 65.5054 30.9813 65.5054C33.6934 65.5054 36.2432 64.4489 38.1607 62.5311L38.2435 62.4484C39.036 61.656 39.036 60.3711 38.2435 59.5787L36.331 57.6661C36.2992 57.6381 36.2643 57.6169 36.2343 57.5865L35.0209 56.3617L39.1021 52.2319L72.7385 18.5949C73.1334 18.2003 73.3485 17.6602 73.3323 17.1023L73.097 8.87369C73.0662 7.79859 72.2019 6.93387 71.1266 6.90343L62.8981 6.66773C62.8761 6.66699 62.854 6.66663 62.832 6.66663Z" fill="white"/>
<path d="M49.4664 58.4659C49.6674 57.2985 49.9971 56.162 50.6045 55.1262C51.2264 54.0659 52.1376 53.4953 53.3765 53.4807C53.835 53.4753 54.2943 53.4697 54.7521 53.4906C55.6885 53.5331 56.4664 53.1918 57.1618 52.5841C59.161 50.8374 59.4756 48.4313 57.977 46.2516C57.6772 45.8157 57.3739 45.3816 57.0899 44.9353C56.3939 43.8413 56.2014 42.6537 56.4354 41.3822C56.5914 40.535 56.9717 39.7818 57.3598 39.0288C57.7489 38.274 58.0892 37.508 58.1746 36.6433C58.4084 34.2769 58.2241 31.9419 57.5023 29.6829C55.6273 23.8141 51.9578 19.6529 45.9472 17.8004C43.6113 17.0804 41.2035 16.9398 38.7758 17.0199C38.7664 17.0199 38.7571 17.0198 38.7476 17.0198V49.2393C38.8581 49.241 38.9529 49.1771 39.0574 49.1237C39.3886 48.9545 39.6916 49.011 39.8964 49.3157C40.9411 50.8691 41.8392 52.5012 42.4598 54.2737C42.5518 54.536 42.59 54.8231 42.5909 55.113C42.5503 55.3732 42.5271 55.6376 42.4658 55.8928C42.2737 56.6928 41.7046 57.0687 40.8931 56.9327C40.1792 56.8133 39.5549 56.4918 39.0207 56.0124C38.9149 55.9176 38.8312 55.877 38.7476 55.8825V62.9999C41.7536 62.9954 44.667 62.6187 47.392 61.21C48.5489 60.6119 49.2442 59.7565 49.4664 58.4659ZM47.8403 48.3561C46.9189 48.3472 46.1282 48.2685 45.3529 48.1004C42.8641 47.5611 41.5936 45.8344 40.9977 43.5073C40.4261 41.2753 41.2498 39.5862 43.3914 38.7459C45.5883 37.8838 47.877 37.5395 50.2263 37.996C51.4319 38.2301 52.2857 38.9548 52.7717 40.09C53.4703 41.7213 53.6068 43.3993 53.1029 45.1046C52.5436 46.9969 51.1615 47.9244 49.2941 48.2386C48.7726 48.3263 48.2457 48.3785 47.8403 48.3561Z" fill="white"/>
<path d="M31.4607 30.8347L21.0846 20.4586V16.9999H24.5433L28.002 20.4586L31.4607 16.9999H34.9195V20.4586L31.4607 23.9173L34.9195 27.376V30.8347H31.4607ZM21.0846 30.8347V27.376L23.6717 24.7889L27.1304 28.2476L24.5433 30.8347H21.0846Z" fill="white"/>
<path d="M31.4607 46.9173L21.0846 36.5412V33.0825H24.5433L28.002 36.5412L31.4607 33.0825H34.9195V36.5412L31.4607 39.9999L34.9195 43.4586V46.9173H31.4607ZM21.0846 46.9173V43.4586L23.6717 40.8715L27.1304 44.3302L24.5433 46.9173H21.0846Z" fill="white"/>
<path d="M31.4693 63.0089L21.0848 52.6244V49.163H24.5463V50.8936L31.4693 57.8166V49.163H34.9308V63.0089H31.4693Z" fill="white"/>
</g>
</svg>
